<svg xmlns="http://www.w3.org/2000/svg" height="1024" preserveAspectRatio="none" style="display: block;" version="1.1" viewBox="0 0 2048 2048" width="1024">
<path d="M 0 0 L 2048 0 L 2048 2048 L 0 2048 L 0 0 z" fill="rgb(10,10,15)" transform="translate(0,0)"></path>
<path d="M 1205.18 763.114 C 1224.97 763.394 1246.33 761.751 1265.71 763.345 C 1360.84 771.172 1424.93 873.002 1379.38 960.208 C 1362.42 992.691 1343.64 1021.7 1324.73 1052.3 L 1248.67 1177.84 C 1226.78 1213.88 1205.12 1250.08 1183.71 1286.41 L 1150.46 1342.63 C 1139.28 1361.47 1126.26 1385.6 1110.88 1400.76 C 1086.65 1424.87 1053.66 1438.08 1019.48 1437.37 C 948.15 1436.53 919.664 1390.16 887.491 1334.9 C 868.151 1301.69 857.065 1286.63 857.149 1245.63 C 857.247 1197.06 882.013 1169.34 906.199 1130.67 L 986.445 1002.53 C 1023.54 942.247 1061.96 880.804 1098.12 820.178 C 1118.15 786.269 1138.41 752.497 1158.89 718.863 C 1175.91 690.665 1188.4 663.06 1211.81 640.391 C 1264.15 589.711 1320.24 591.103 1388.14 592.571 C 1349.67 645.349 1288.46 697.209 1235.74 735.104 C 1224.97 742.844 1210.26 754.019 1199.09 760.629 C 1201.89 762.345 1201.99 762.238 1205.18 763.114 z" fill="rgb(91,54,224)" transform="translate(0,0)"></path>
<path d="M 1199.09 760.629 C 1201.89 762.345 1201.99 762.238 1205.18 763.114 C 1204.31 763.113 1196.58 763.668 1196.52 762.313 C 1197 761.396 1198.16 761.041 1199.09 760.629 z" fill="rgb(30,25,60)" transform="translate(0,0)"></path>
<path d="M 636.594 593.383 C 644.11 592.381 670.258 592.876 679.005 593.017 C 721.931 593.709 754.389 587.336 793.644 608.772 C 809.412 617.473 823.288 629.229 834.462 643.353 C 849.626 662.464 878.368 713.515 892.635 736.889 L 948.147 827.767 C 955.061 838.989 993.931 896.773 989.484 906.223 C 979.021 928.457 958.852 957.726 945.614 979.543 C 913.121 1033.64 880.208 1087.49 846.879 1141.07 C 839.768 1152.77 829.072 1177 815.371 1180.34 C 813.06 1180.91 806.187 1180.62 804.541 1178.77 C 790.185 1162.58 779.458 1141.69 767.817 1123.21 L 658.248 945.664 C 633.238 906.225 608.532 866.593 584.135 826.772 C 564.518 795.118 536.754 758.369 532.362 721.467 C 528.533 690.865 537.154 660.008 556.289 635.822 C 577.157 609.949 604.014 596.996 636.594 593.383 z" fill="rgb(49,75,240)" transform="translate(0,0)"></path>
<path d="M 525.807 839.546 C 529.568 840.764 537.946 844.566 540.046 847.422 C 552.568 864.461 566.04 887.53 576.943 905.221 L 673.584 1062.61 L 780.071 1234.78 C 795.639 1260.07 812.416 1285.67 827.1 1311.38 C 848.698 1349.21 832.021 1394.82 803.425 1424.21 C 774.054 1453.07 740.503 1455.57 702.66 1456.06 C 648.277 1456.76 607.412 1457.1 565.486 1414.88 C 546.614 1395.68 533.866 1371.31 528.857 1344.85 C 524.802 1323.67 525.524 1290.19 525.396 1267.82 C 525.125 1227.3 525.204 1186.77 525.634 1146.25 L 525.807 839.546 z" fill="rgb(49,75,240)" transform="translate(0,0)"></path>
<path d="M 1262.67 1438.42 C 1231.61 1418.05 1210.59 1384.79 1210.99 1347.2 C 1211.32 1316.26 1240.26 1278.49 1256.79 1252.41 L 1307.95 1170.53 C 1361.55 1082.77 1415.69 995.341 1470.35 908.236 C 1477.11 897.648 1483.78 887.009 1490.38 876.32 C 1495.82 867.331 1509.34 839.402 1521.06 839.798 C 1523.19 843.658 1522.69 1004.27 1522.95 1022.63 L 1522.87 1225.49 C 1522.91 1253.39 1524.99 1321.8 1519.7 1345.27 C 1513.69 1371.35 1500.54 1395.23 1481.71 1414.25 C 1438.41 1457.93 1394.56 1456.64 1338.06 1456.1 C 1308.38 1455.81 1289.26 1453.97 1262.67 1438.42 z" fill="rgb(91,54,224)" transform="translate(0,0)"></path>
<path d="M 1262.67 1438.42 C 1266.79 1427.78 1297.15 1381.97 1304.89 1369.68 L 1407.24 1206.97 C 1435.15 1161.74 1463.44 1116.74 1492.09 1071.98 C 1498.02 1062.55 1517.22 1029.09 1522.95 1022.63 L 1522.87 1225.49 C 1522.91 1253.39 1524.99 1321.8 1519.7 1345.27 C 1513.69 1371.35 1500.54 1395.23 1481.71 1414.25 C 1438.41 1457.93 1394.56 1456.64 1338.06 1456.1 C 1308.38 1455.81 1289.26 1453.97 1262.67 1438.42 z" fill="rgb(49,75,240)" transform="translate(0,0)"></path>
<path d="M 1438.87 577.283 C 1440.02 574.171 1440.16 573.703 1441.92 570.924 C 1444.13 613.297 1453 646.816 1483.01 678.591 C 1512.39 709.699 1542.06 717.243 1583.16 723.054 L 1583.9 725.186 C 1499.94 735.46 1448.04 784.358 1442.28 870.567 C 1440.47 872.546 1440.41 872.647 1439.02 874.843 C 1435.06 833.719 1426.34 801.218 1397.18 769.813 C 1372.43 743.16 1332.54 727.176 1296.4 726.058 C 1294.68 724.845 1293.78 725.008 1294.92 723.245 C 1331.95 720.018 1366.16 709.14 1393.52 683.068 C 1421.51 656.392 1437.87 615.733 1438.87 577.283 z" fill="rgb(49,75,240)" transform="translate(0,0)"></path>
<path d="M 1442.28 870.567 C 1442.35 876.189 1442.42 884.882 1441.19 890.413 C 1441.17 890.538 1440.78 890.641 1440.69 890.567 C 1438.3 888.621 1438.86 876.548 1439.02 874.843 C 1440.41 872.647 1440.47 872.546 1442.28 870.567 z" fill="rgb(36,42,115)" transform="translate(0,0)"></path>
<path d="M 1438.87 577.283 C 1439.07 569.194 1439.85 561.13 1441.2 553.152 C 1441.6 558.11 1442.59 566.279 1441.92 570.924 C 1440.16 573.703 1440.02 574.171 1438.87 577.283 z" fill="rgb(36,42,115)" transform="translate(0,0)"></path>
<path d="M 1278.97 724.855 C 1283.08 724.335 1291.15 722.849 1294.92 723.245 C 1293.78 725.008 1294.68 724.845 1296.4 726.058 C 1289.77 726.434 1285.38 725.843 1278.97 724.855 z" fill="rgb(36,42,115)" transform="translate(0,0)"></path>
<path d="M 1588.13 722.927 C 1589.53 722.98 1596.76 723.051 1597.33 724.433 C 1596.81 725.604 1591.8 725.271 1590.89 725.271 L 1588.13 722.927 z" fill="rgb(30,25,60)" transform="translate(0,0)"></path>
<path d="M 1583.16 723.054 C 1584.83 723.038 1586.46 722.98 1588.13 722.927 L 1590.89 725.271 C 1588.49 725.197 1586.31 725.14 1583.9 725.186 L 1583.16 723.054 z" fill="rgb(36,42,115)" transform="translate(0,0)"></path>
<metadata><recraft-signature>{"signed_by": "recraft", "signature_b64": "0ArHY+fZ55gYbOWyYgACoLdPKGSy/Cos5gJ2f6u/xMUTLIPuRpT1Swwp+zIu5kPIkNM0hx0ZZzgDzpLsWSidDQ==", "signing_algo": "Ed25519", "generation_timestamp": 1784400953, "identifier": "e4b02bb7-f7b6-4022-aa52-e09fa24ca4e3"}</recraft-signature></metadata></svg>